<?xml version="1.0" encoding="UTF-8"?>
<svg id="Layer_1" xmlns="http://www.w3.org/2000/svg" viewBox="0 0 3346.68 1200">
  <defs>
    <style>
      .cls-1 {
        fill: #2e2ea3;
      }
    </style>
  </defs>
  <path class="cls-1" d="M1585.07,899.58l-49.42-122.32-269.54.24-50.02,122.4-87.1.08,232.88-545.47,86.28-.08,228.12,545.05-91.22.08.02.02ZM1292.35,711.8l216.94-.2-107.9-266.8-109.06,266.98.02.02ZM1974.5,485.36c4.94,0,10.68,0,16.42.8l-.74,82.12c-14.8-3.28-24.66-5.72-39.44-5.72-53.42.04-115.02,34.6-114.92,142.18l.18,194.62-82.18.08-.36-398.27,78.88-10.74.08,87.86c20.5-53.4,61.56-92.84,142.1-92.92h-.02ZM2310.83,485.04c92.86-.08,148.8,58.98,148.9,150.14l.24,263.6-83,.08-.22-250.46c-.06-60.78-34.6-96.88-97.88-96.82-61.64.06-111.7,55.12-111.64,124.92l.2,222.54-82.2.08-.36-398.27,78.88-10.74.06,69.8c27.08-41.9,73.9-74.8,147.04-74.86h-.02ZM2558.47,361.65l64.86-61.64,64.16,61.54-64.04,60-64.96-59.88-.02-.02ZM2582.79,898.68l-.36-398.27,82.16-10.74.38,408.95-82.16.08-.02-.02ZM2901.89,497.66l151.2-.14,83-10.74.38,411.41-83,.08-.3-340.79-151.2.14.3,340.79-82.16.08-.3-340.79-73.96.06-.06-59.94,73.96-.06-.04-36.96c-.06-75.54,43.4-143.74,167.5-143.86,58.32-.06,114.22,17.14,159.48,52.42l-55.84,52.6c-30.44-24.6-63.32-42.64-103.58-42.6-61.64.06-85.44,37.04-85.4,81.38l.04,36.96-.02-.04Z"/>
  <g>
    <path class="cls-1" d="M591.48,386.83v-177.06c0-10.28-13.82-13.56-18.46-4.4l-118.2,234.2c-4.2,8.32,4.56,17.24,12.94,13.18l118.2-57.14c3.38-1.62,5.52-5.04,5.52-8.78Z"/>
    <path class="cls-1" d="M608.46,386.83v-177.06c0-10.28,13.82-13.56,18.46-4.4l118.2,234.2c4.2,8.32-4.56,17.24-12.94,13.18l-118.2-57.14c-3.38-1.62-5.52-5.04-5.52-8.78Z"/>
    <path class="cls-1" d="M608.5,813.18v177.06c0,10.26,13.82,13.56,18.46,4.4l118.22-234.2c4.2-8.32-4.56-17.24-12.94-13.18l-118.22,57.14c-3.36,1.62-5.5,5.04-5.5,8.78h-.02Z"/>
    <path class="cls-1" d="M591.52,813.18v177.06c0,10.26-13.82,13.56-18.46,4.4l-118.2-234.2c-4.2-8.32,4.56-17.24,12.94-13.18l118.2,57.14c3.36,1.62,5.52,5.04,5.52,8.78h0Z"/>
    <path class="cls-1" d="M813.16,591.5h177.06c10.28,0,13.56-13.82,4.4-18.46l-234.2-118.2c-8.32-4.2-17.24,4.56-13.18,12.94l57.14,118.2c1.62,3.36,5.04,5.5,8.78,5.5v.02Z"/>
    <path class="cls-1" d="M813.16,608.5h177.06c10.28,0,13.56,13.82,4.4,18.46l-234.2,118.2c-8.32,4.2-17.24-4.56-13.18-12.94l57.14-118.2c1.62-3.36,5.04-5.5,8.78-5.5v-.02Z"/>
    <path class="cls-1" d="M386.83,608.5h-177.06c-10.28,0-13.56,13.82-4.4,18.46l234.2,118.2c8.32,4.2,17.24-4.56,13.18-12.94l-57.14-118.2c-1.62-3.36-5.04-5.5-8.78-5.5v-.02Z"/>
    <path class="cls-1" d="M386.83,591.5h-177.06c-10.28,0-13.56-13.82-4.4-18.46l234.2-118.2c8.32-4.2,17.24,4.56,13.18,12.94l-57.14,118.2c-1.62,3.36-5.04,5.5-8.78,5.5v.02Z"/>
  </g>
</svg>