<svg width="105" height="17" viewBox="0 0 105 17" fill="none" xmlns="http://www.w3.org/2000/svg">
<path d="M12.9166 6.76793H4.27096V0.292969H0V16.4656H4.27096V9.33125H12.9166V16.4656H17.2098V0.292969H12.9166V6.76793Z" fill="#0C0C0C"/>
<path d="M25.067 0.292969H20.7441V16.4693H25.067V0.292969Z" fill="#0C0C0C"/>
<path d="M105.001 0.292969H100.678V16.4693H105.001V0.292969Z" fill="#0C0C0C"/>
<path d="M43.4357 0.292969H26.6445V2.98593H32.9195V16.4656H37.1608V2.98593H43.4357V0.292969Z" fill="#0C0C0C"/>
<path d="M47.4138 0.318848L39.7461 16.4655H44.543L46.047 12.8428H54.137L55.6149 16.4655H60.4378L52.822 0.318848H47.4175H47.4138ZM47.1249 10.2832L50.1031 3.06737L53.0553 10.2832H47.1249Z" fill="#0C0C0C"/>
<path d="M69.3423 14.38C67.6828 14.38 64.2823 14.0355 64.2304 8.43477C64.1786 3.14886 67.2864 2.40801 69.3423 2.40801C71.3722 2.43394 73.4021 3.38593 73.428 5.78996H77.8027C77.7471 2.85622 75.2208 0.0558388 69.3423 0.000275629C64.9676 -0.0256539 59.6706 1.77089 59.6446 8.35328C59.6187 14.8801 65.0231 16.9174 69.3423 16.81C73.3206 16.6766 77.7508 15.5691 77.936 10.6536L73.5354 10.6795C73.4021 13.7466 70.9536 14.3541 69.346 14.38H69.3423Z" fill="#0C0C0C"/>
<path d="M92.9578 6.76793H84.3122V0.292969H80.0449V16.4656H84.3122V9.33125H92.9578V16.4656H97.2251V0.292969H92.9578V6.76793Z" fill="#0C0C0C"/>
</svg>
