<svg width="1648" height="1867" xmlns="http://www.w3.org/2000/svg" xmlns:xlink="http://www.w3.org/1999/xlink" xml:space="preserve" overflow="hidden"><defs><clipPath id="clip0"><rect x="1073" y="227" width="1648" height="1867"/></clipPath><clipPath id="clip1"><rect x="1215" y="226" width="1343" height="1222"/></clipPath><clipPath id="clip2"><rect x="1215" y="226" width="1343" height="1222"/></clipPath><clipPath id="clip3"><rect x="964" y="154" width="1923" height="1924"/></clipPath><clipPath id="clip4"><rect x="1072" y="1358" width="564" height="562"/></clipPath><clipPath id="clip5"><rect x="1072" y="1358" width="564" height="562"/></clipPath><clipPath id="clip6"><rect x="937" y="84" width="1909" height="1911"/></clipPath><clipPath id="clip7"><path d="M1489.26 1540.13 2045.07 1448.2 2136.53 2001.19 1580.72 2093.12Z" fill-rule="evenodd" clip-rule="evenodd"/></clipPath><clipPath id="clip8"><path d="M1489.26 1540.13 2045.07 1448.2 2136.53 2001.19 1580.72 2093.12Z" fill-rule="evenodd" clip-rule="evenodd"/></clipPath><clipPath id="clip9"><path d="M1147.85 306.773 3031.13-4.70178 3342.6 1878.53 1459.31 2190.01Z" fill-rule="evenodd" clip-rule="evenodd"/></clipPath><clipPath id="clip10"><path d="M2680.37 1358 2118.43 1398.04 2158.26 1957.12 2720.2 1917.09Z" fill-rule="evenodd" clip-rule="evenodd"/></clipPath><clipPath id="clip11"><path d="M2680.37 1358 2118.43 1398.04 2158.26 1957.12 2720.2 1917.09Z" fill-rule="evenodd" clip-rule="evenodd"/></clipPath><clipPath id="clip12"><path d="M2725.18 79.0512 821.138 214.7 956.783 2118.69 2860.83 1983.04Z" fill-rule="evenodd" clip-rule="evenodd"/></clipPath></defs><g clip-path="url(#clip0)" transform="translate(-1073 -227)"><g clip-path="url(#clip1)"><g clip-path="url(#clip2)"><g clip-path="url(#clip3)"><path d="M486.749 264.412C504.48 236.127 526.432 210.939 551.761 189.549 551.761 189.455 551.761 189.409 551.761 189.409 595.666 151.977 649.561 125.944 708.945 115.812 708.945 115.812 708.945 115.812 708.945 115.812 727.239 112.576 745.954 111.028 765.092 111.028 819.691 111.028 871.336 124.396 916.788 147.896 923.261 151.931 929.875 155.682 936.629 159.154 965.195 174.07 996.294 184.905 1029.08 190.816L1029.22 190.816C1036.07 192.129 1043.06 193.162 1050.19 193.912 1050.28 193.912 1050.38 193.958 1050.47 194.052 1076.22 198.274 1101.27 204.466 1125.62 212.346 1125.71 212.346 1125.8 212.392 1125.9 212.487 1130.96 214.362 1136.12 216.099 1141.38 217.693 1141.56 217.787 1141.8 217.88 1142.08 217.975 1150.95 221.211 1159.67 224.588 1168.25 228.247 1240.3 258.783 1304.19 304.939 1355.55 362.353 1356.68 363.666 1357.85 364.98 1359.07 366.293 1363.57 371.546 1368.03 376.847 1372.44 382.194 1381.63 393.546 1390.31 405.226 1398.47 417.233 1423.94 454.524 1444.63 495.192 1459.82 538.393 1459.92 538.58 1459.97 538.769 1459.97 538.956 1468.59 566.161 1475.87 593.977 1481.78 622.403 1493.46 678.55 1499.51 736.808 1499.51 796.473 1499.51 812.139 1499.09 827.712 1498.24 843.192 1497.12 864.675 1495.19 885.924 1492.47 906.938 1476.43 991.088 1428.44 1063.98 1361.6 1112.25 1340.49 1125.33 1318.82 1137.58 1296.59 1148.83 1247.48 1173.74 1195.69 1194.01 1141.8 1209.06 1079.18 1226.65 1013.74 1237.21 946.339 1240.02 934.424 1240.49 922.463 1240.72 910.456 1240.72 763.544 1240.72 625.217 1203.72 504.48 1138.42 503.822 1138.14 503.213 1137.81 502.65 1137.44 496.834 1134.34 491.065 1131.1 485.342 1127.73 485.06 1127.63 484.825 1127.54 484.638 1127.45 405.132 1079.6 347.577 999.109 330.41 904.545 330.41 904.451 330.41 904.358 330.41 904.264 328.908 894.601 327.595 884.891 326.469 875.135 322.529 842.066 320.559 808.434 320.559 774.38 320.559 629.861 354.895 492.8 419.626 374.314 426.943 361.086 441.859 334.772 449.88 321.966 458.886 307.472 477.602 278.765 486.749 264.412Z" fill="#CC0000" transform="matrix(1.00003 0 0 1 964.258 154.993)"/></g></g></g><g clip-path="url(#clip4)"><g clip-path="url(#clip5)"><g clip-path="url(#clip6)"><path d="M662.645 1430.73C662.645 1445.39 660.27 1459.49 655.802 1472.62 655.802 1472.72 655.802 1472.76 655.802 1472.76 651.752 1481.98 647.562 1490.92 642.954 1499.71 569.218 1644.39 430.125 1750.25 264.639 1778.18 264.545 1778.18 264.499 1778.18 264.499 1778.18 259.565 1779.02 254.63 1779.76 249.696 1780.41 249.044 1780.51 248.393 1780.59 247.741 1780.69 247.741 1780.69 247.741 1780.69 247.601 1780.69 247.229 1780.69 246.857 1780.69 246.484 1780.69 210.734 1780.69 181.826 1751.78 181.826 1716.03 181.826 1715.1 181.872 1714.18 181.965 1713.24 182.524 1708.77 183.222 1704.3 183.921 1699.69 211.851 1530.86 320.499 1389.25 469.088 1316.21 473.93 1313.79 478.818 1311.46 483.751 1309.23 483.845 1309.23 483.937 1309.18 484.031 1309.09 498.973 1303.22 515.033 1300.01 531.931 1300.01 604.131 1300.01 662.645 1358.53 662.645 1430.73Z" fill="#009900" transform="matrix(1 0 0 1.0015 937.501 84.3445)"/></g></g></g><g clip-path="url(#clip7)"><g clip-path="url(#clip8)"><g clip-path="url(#clip9)"><path d="M663.056 1431.61C663.056 1446.29 660.68 1460.4 656.208 1473.53 656.208 1473.63 656.208 1473.67 656.208 1473.67 652.156 1482.9 647.964 1491.84 643.353 1500.64 569.571 1645.41 430.392 1751.33 264.803 1779.28 264.709 1779.28 264.663 1779.28 264.663 1779.28 259.726 1780.12 254.788 1780.86 249.851 1781.52 249.199 1781.61 248.547 1781.7 247.895 1781.8 247.895 1781.8 247.895 1781.8 247.755 1781.8 247.382 1781.8 247.01 1781.8 246.637 1781.8 210.864 1781.8 181.939 1752.87 181.939 1717.1 181.939 1716.16 181.985 1715.24 182.078 1714.3 182.637 1709.83 183.336 1705.36 184.035 1700.75 211.982 1531.81 320.698 1390.11 469.379 1317.03 474.224 1314.61 479.115 1312.28 484.052 1310.04 484.145 1310.04 484.237 1310 484.331 1309.9 499.283 1304.03 515.353 1300.82 532.261 1300.82 604.505 1300.82 663.056 1359.37 663.056 1431.61Z" fill="#009900" transform="matrix(0.986625 -0.163177 0.163172 0.986598 1147.85 306.773)"/></g></g></g><g clip-path="url(#clip10)"><g clip-path="url(#clip11)"><g clip-path="url(#clip12)"><path d="M663.056 1431.61C663.056 1446.29 660.68 1460.4 656.208 1473.53 656.208 1473.63 656.208 1473.67 656.208 1473.67 652.156 1482.9 647.964 1491.84 643.353 1500.64 569.571 1645.41 430.392 1751.33 264.803 1779.28 264.709 1779.28 264.663 1779.28 264.663 1779.28 259.726 1780.12 254.788 1780.86 249.851 1781.52 249.199 1781.61 248.547 1781.7 247.895 1781.8 247.895 1781.8 247.895 1781.8 247.755 1781.8 247.382 1781.8 247.01 1781.8 246.637 1781.8 210.864 1781.8 181.939 1752.87 181.939 1717.1 181.939 1716.16 181.985 1715.24 182.078 1714.3 182.637 1709.83 183.336 1705.36 184.035 1700.75 211.982 1531.81 320.698 1390.11 469.379 1317.03 474.224 1314.61 479.115 1312.28 484.052 1310.04 484.145 1310.04 484.237 1310 484.331 1309.9 499.283 1304.03 515.353 1300.82 532.261 1300.82 604.505 1300.82 663.056 1359.37 663.056 1431.61Z" fill="#009900" transform="matrix(-0.9975 0.0710642 0.0710622 0.997472 2725.18 79.0512)"/></g></g></g></g></svg>